<svg xmlns="http://www.w3.org/2000/svg" xmlns:svg="http://www.w3.org/2000/svg" id="svg2" width="14" height="14" version="1.1" viewBox="0 0 14 14"><metadata id="metadata10"/><path id="path4" d="m 11.997215,6.6618677 q 0.449335,0 0.751059,0.2872053 0.301723,0.2872054 0.300794,0.72074 0,0.6889292 -0.674931,0.9234195 l -1.247742,0.4189926 0.40663,1.1860859 q 0.05106,0.149055 0.05106,0.333557 0,0.418994 -0.304508,0.724377 -0.304509,0.305382 -0.732491,0.305382 -0.340715,0 -0.6201576,-0.191773 -0.2794421,-0.191773 -0.3880625,-0.511699 l -0.399203,-1.1715428 -2.2485343,0.7525508 0.399203,1.164272 q 0.057559,0.16996 0.057559,0.333559 0,0.418992 -0.3045083,0.724375 -0.3045084,0.305383 -0.7399182,0.305383 -0.3407151,0 -0.6164437,-0.191774 -0.2757287,-0.191773 -0.384349,-0.511697 l -0.399203,-1.157002 -1.1094131,0.376276 q -0.2107421,0.06363 -0.3629963,0.06363 -0.4428368,0 -0.7362046,-0.28357 -0.2933678,-0.28357 -0.2933678,-0.717105 0,-0.333557 0.1996015,-0.6034941 Q 2.8006896,9.6720702 3.120052,9.5657315 L 4.2517462,9.1894562 3.4904753,6.9672506 2.3587811,7.3507969 q -0.1884609,0.05635 -0.3481421,0.05635 -0.4354099,0 -0.7324912,-0.2872053 -0.29708133,-0.2872052 -0.29708133,-0.7134689 0,-0.333558 0.19960153,-0.6034946 Q 1.3802695,5.5330414 1.699632,5.4267028 L 2.8387532,5.0504275 2.4544042,3.9216015 q -0.057559,-0.1699601 -0.057559,-0.3335581 0,-0.4262636 0.3045083,-0.7280109 0.3045084,-0.3017474 0.7399182,-0.3017474 0.3407152,0 0.6164438,0.1917732 0.2757286,0.1917735 0.3843489,0.5116985 l 0.391776,1.1360969 2.2485343,-0.7452796 -0.391776,-1.136097 q -0.057559,-0.1699601 -0.057559,-0.333558 0,-0.4189925 0.3082219,-0.7243754 0.3082218,-0.3053829 0.7362046,-0.3053829 0.3407152,0 0.6201573,0.1954087 0.2794421,0.1954087 0.3880625,0.5080626 L 9.0700349,3 10.245362,2.6091827 q 0.152255,-0.042717 0.311936,-0.042717 0.43541,0 0.743632,0.2808432 0.308221,0.2808431 0.308221,0.6998357 0,0.3199248 -0.21724,0.578955 -0.217241,0.2590301 -0.536603,0.3653687 L 9.7161868,4.8750149 10.477457,7.1190336 11.666711,6.7209452 q 0.173607,-0.05635 0.333288,-0.05635 z M 6.2384791,8.5214313 8.4870133,7.7761516 7.7257424,5.5394039 5.4772082,6.2992256 Z" style="fill:#8bc34a;fill-opacity:1;stroke-width:.91857666"/></svg>