<svg xmlns="http://www.w3.org/2000/svg" xmlns:svg="http://www.w3.org/2000/svg" id="svg2" width="14" height="14" version="1.1" viewBox="0 0 14 14"><metadata id="metadata10"/><path id="path4" d="m 13,10.474576 v 1 q 0,0.203 -0.148,0.352 -0.148,0.149 -0.352,0.148 h -11 q -0.203,0 -0.352,-0.148 -0.149,-0.148 -0.148,-0.352 v -1 q 0,-0.203 0.148,-0.352 0.148,-0.149 0.352,-0.148 h 11 q 0.203,0 0.352,0.148 0.149,0.148 0.148,0.352 z m 0,-4 v 1 q 0,0.203 -0.148,0.352 -0.148,0.149 -0.352,0.148 h -11 q -0.203,0 -0.352,-0.148 -0.149,-0.148 -0.148,-0.352 v -1 q 0,-0.203 0.148,-0.352 0.148,-0.149 0.352,-0.148 h 11 q 0.203,0 0.352,0.148 0.149,0.148 0.148,0.352 z m 0,-4 v 1 q 0,0.203 -0.148,0.352 -0.148,0.149 -0.352,0.148 h -11 q -0.203,0 -0.352,-0.148 -0.149,-0.148 -0.148,-0.352 v -1 q 0,-0.203 0.148,-0.352 0.148,-0.149 0.352,-0.148 h 11 q 0.203,0 0.352,0.148 0.149,0.148 0.148,0.352 z" style="fill:#9e9e9e;fill-opacity:1"/></svg>