<svg xmlns="http://www.w3.org/2000/svg" xmlns:svg="http://www.w3.org/2000/svg" id="svg2" width="14" height="14" version="1.1" viewBox="0 0 14 14"><metadata id="metadata10"/><path id="path4" d="M 5.2857142,3 H 8.7142858 V 2 H 5.2857142 Z M 13,8 v 3.75 q 0,0.516 -0.314572,0.883 Q 12.370858,13 11.928572,13 H 2.0714286 Q 1.6291429,13 1.3145714,12.633 1,12.266 1,11.75 V 8 h 4.5 v 1.25 q 0,0.203 0.1268572,0.352 0.126857,0.149 0.3017142,0.148 h 2.1428572 q 0.174,0 0.3017142,-0.148 Q 8.5008572,9.454 8.5,9.25 V 8 Z M 7.8571428,8 V 9 H 6.1428572 V 8 Z M 13,4.25 v 3 H 1 v -3 Q 1,3.734 1.3145714,3.367 1.6291429,3 2.0714286,3 H 4.4285714 V 1.75 q 0,-0.312 0.1877144,-0.531 Q 4.804,1 5.0714286,1 H 8.9285714 Q 9.196,1 9.3837142,1.219 9.5714286,1.438 9.5714286,1.75 V 3 H 11.928572 Q 12.370858,3 12.685428,3.367 13,3.734 13,4.25 Z" style="fill:#f44336;fill-opacity:1;stroke-width:.92582011"/></svg>