<svg xmlns="http://www.w3.org/2000/svg" xmlns:svg="http://www.w3.org/2000/svg" id="svg2" width="14" height="14" version="1.1" viewBox="0 0 14 14"><metadata id="metadata12"/><g id="icomoon-ignore" transform="translate(-1.0169492,-1.0169492)"><line id="line5" x1="0" x2="0" y1="0" y2="0" style="stroke:#449fdb"/></g><path id="path7" d="m 10.983045,0.98305099 -7.999794,0 c -1.1002,0 -2.00020001,0.90000001 -2.00020001,2.00020001 l 0,7.999494 c 0,1.101 0.90000001,2 2.00020001,2 l 7.999494,0 c 1.1,0 2,-0.899 2,-2 l 0,-7.999494 c 0,-1.1005 -0.9,-2.00050001 -2,-2.00050001 z" style="fill:#2196f3;fill-opacity:.98823529"/><g id="text4555" transform="matrix(1.0578,0,0,0.99477,-0.98412915,-0.80284915)" style="fill:#fff"><path id="path4605" d="m 7.9864,3.8058 c 0.3208,0 0.4812,0.1725 0.4812,0.5175 0,0.1756 -0.0484,0.3072 -0.1453,0.395 -0.0938,0.0848 -0.2058,0.1271 -0.3359,0.1271 -0.3239,0 -0.4858,-0.174 -0.4858,-0.5221 0,-0.345 0.1619,-0.5175 0.4858,-0.5175 M 7.5687,6.5116 6.5863,6.3747 l 0,-0.5584 1.8907,0 0,4.3356 0.94534,0.13231 0,0.5584 -2.836,0 0,-0.5584 0.98237,-0.0908 0,-3.6818" style="fill:#fff"/></g></svg>