<svg xmlns="http://www.w3.org/2000/svg" xmlns:svg="http://www.w3.org/2000/svg" id="svg2" width="14" height="14" version="1.1" viewBox="0 0 14 14"><metadata id="metadata13"/><defs id="defs11"><linearGradient id="linearGradient5254"><stop id="stop5256" offset="0" style="stop-color:#000;stop-opacity:1"/></linearGradient></defs><g id="icomoon-ignore" transform="translate(-1.0169492,-1.0169492)"><line id="line5" x1="0" x2="0" y1="0" y2="0" style="stroke:#449fdb;stroke-width:1"/></g><path id="path7" d="m 10.983045,0.98305099 -7.999744,0 c -1.10025,0 -2.00025001,0.90000001 -2.00025001,2.00025001 l 0,7.999494 c 0,1.101 0.90000001,2.00025 2.00025001,2.00025 l 7.999494,0 c 1.10025,0 2.00025,-0.89925 2.00025,-2.00025 l 0,-7.999494 c 2.5e-4,-1.10025 -0.89975,-2.00025001 -2,-2.00025001 z" style="fill:#ff9800;fill-opacity:.98823529"/><g id="text4555" transform="matrix(1.0578229,0,0,0.99477157,-0.98412909,-0.8028474)" style="font-style:normal;font-variant:normal;font-weight:400;font-stretch:normal;font-size:9.29763985px;line-height:125%;font-family:'Ubuntu Mono';-inkscape-font-specification:'Ubuntu Mono';letter-spacing:0;word-spacing:0;fill:#fff;fill-opacity:1;stroke:none"><path id="path4605" d="M 7.9863805,3.8057966 C 8.3071943,3.8058037 8.4676026,3.9783183 8.467606,4.323341 8.4676026,4.4988888 8.4191775,4.6305447 8.3223303,4.7183091 8.2285034,4.8030593 8.1165202,4.8454313 7.9863805,4.8454253 7.6625343,4.8454313 7.5006127,4.6714034 7.5006151,4.323341 7.5006127,3.9783183 7.6625343,3.8058037 7.9863805,3.8057966 M 7.5687131,6.5115551 6.5863388,6.3747116 l 0,-0.5584032 1.8906756,0 0,4.3355696 0.9453378,0.132306 0,0.558404 -2.8360134,0 0,-0.558404 0.9823743,-0.0908 0,-3.6818289" style="font-family:'Droid Sans Mono';-inkscape-font-specification:'Droid Sans Mono';fill:#fff"/></g></svg>