<svg xmlns="http://www.w3.org/2000/svg" xmlns:svg="http://www.w3.org/2000/svg" id="svg2" width="14" height="14" version="1.1" viewBox="0 0 14 14"><metadata id="metadata13"/><defs id="defs11"><linearGradient id="linearGradient5254"><stop id="stop5256" offset="0" style="stop-color:#000;stop-opacity:1"/></linearGradient></defs><g id="icomoon-ignore" transform="translate(-1.0169492,-1.0169492)"><line id="line5" x1="0" x2="0" y1="0" y2="0" style="stroke:#449fdb;stroke-width:1"/></g><path id="path7" d="m 10.983045,0.98305099 -7.999744,0 c -1.10025,0 -2.00025001,0.90000001 -2.00025001,2.00025001 l 0,7.999494 c 0,1.101 0.90000001,2.00025 2.00025001,2.00025 l 7.999494,0 c 1.10025,0 2.00025,-0.89925 2.00025,-2.00025 l 0,-7.999494 c 2.5e-4,-1.10025 -0.89975,-2.00025001 -2,-2.00025001 z" style="fill:#cddc39;fill-opacity:1"/><g id="text4407" transform="matrix(0.96555969,0,0,0.90319612,-0.74142641,-0.24251829)" style="font-style:normal;font-variant:normal;font-weight:400;font-stretch:normal;font-size:14.79526901px;line-height:125%;font-family:Monospace;-inkscape-font-specification:Monospace;letter-spacing:0;word-spacing:0;fill:#fff;fill-opacity:1;stroke:none"><path id="path2989" d="m 4.8929935,7.2528393 2.3228572,0 0,-2.5743768 1.5682986,0 0,2.5743768 2.3228567,0 0,1.4943222 -2.3228567,0 0,2.5743765 -1.5682986,0 0,-2.5743765 -2.3228572,0 0,-1.4943222" style="font-weight:700;font-family:'Ubuntu Mono';-inkscape-font-specification:'Ubuntu Mono Bold';fill:#fff"/></g></svg>