<svg xmlns="http://www.w3.org/2000/svg" xmlns:svg="http://www.w3.org/2000/svg" id="svg2" width="14" height="14" version="1.1" viewBox="0 0 14 14"><metadata id="metadata13"/><defs id="defs11"><linearGradient id="linearGradient5254"><stop id="stop5256" offset="0" style="stop-color:#000;stop-opacity:1"/></linearGradient></defs><g id="icomoon-ignore" transform="translate(-1.0169492,-1.0169492)"><line id="line5" x1="0" x2="0" y1="0" y2="0" style="stroke:#449fdb;stroke-width:1"/></g><path id="path7" d="m 10.983045,0.98305099 -7.999744,0 c -1.10025,0 -2.00025001,0.90000001 -2.00025001,2.00025001 l 0,7.999494 c 0,1.101 0.90000001,2.00025 2.00025001,2.00025 l 7.999494,0 c 1.10025,0 2.00025,-0.89925 2.00025,-2.00025 l 0,-7.999494 c 2.5e-4,-1.10025 -0.89975,-2.00025001 -2,-2.00025001 z" style="fill:#03a9f4;fill-opacity:.98823529"/><g id="text4714" transform="matrix(1.2177545,0,0,1.2258347,-2.7589855,-2.8287306)" style="font-style:normal;font-variant:normal;font-weight:400;font-stretch:normal;font-size:10.20103836px;line-height:125%;font-family:'Ubuntu Mono';-inkscape-font-specification:'Ubuntu Mono';letter-spacing:0;word-spacing:0;fill:#fff;fill-opacity:1;stroke:none"><path id="path4719" d="m 8.4182426,5.5568517 4e-7,4.8946243 1.2241246,0 0,0.81577 -3.2847344,0 0,-0.81577 1.2241246,0 -4e-7,-4.8946243 -1.2241246,0 4e-7,-0.8157707 3.2847344,0 -4e-7,0.8157707 -1.2241246,0" style="fill:#fff"/></g></svg>