<svg xmlns="http://www.w3.org/2000/svg" xmlns:svg="http://www.w3.org/2000/svg" id="svg2" width="14" height="14" version="1.1" viewBox="0 0 14 14"><metadata id="metadata13"/><defs id="defs11"><linearGradient id="linearGradient5254"><stop id="stop5256" offset="0" style="stop-color:#000;stop-opacity:1"/></linearGradient></defs><g id="icomoon-ignore" transform="translate(-1.0169492,-1.0169492)"><line id="line5" x1="0" x2="0" y1="0" y2="0" style="stroke:#449fdb;stroke-width:1"/></g><path id="path7" d="m 10.982795,0.98305099 -7.999494,0 c -1.10025,0 -2.00025001,0.90000001 -2.00025001,2.00025001 l 0,7.999494 c 0,1.101 0.90000001,2.00025 2.00025001,2.00025 l 7.999494,0 c 1.10025,0 2.00025,-0.89925 2.00025,-2.00025 l 0,-7.999494 c 0,-1.10025 -0.9,-2.00025001 -2.00025,-2.00025001 z" style="fill:#3f51b5;fill-opacity:1"/><g id="text4885" transform="translate(-2.5055856,0.96337099)" style="font-style:normal;font-variant:normal;font-weight:400;font-stretch:normal;font-size:12px;line-height:125%;font-family:'Ubuntu Mono';-inkscape-font-specification:'Ubuntu Mono';letter-spacing:0;word-spacing:0;fill:#fff;fill-opacity:1;stroke:none"><path id="path4890" d="M 12,3 C 11.863631,3.5603503 11.708328,4.1120739 11.534091,4.6551724 11.359844,5.1896591 11.181814,5.7155206 11,6.2327586 10.818177,6.7413816 10.632571,7.2284501 10.443182,7.6939655 10.253784,8.1594836 10.071966,8.594828 9.8977274,9 L 9.0454544,9 C 8.6893918,8.189656 8.3295436,7.2672432 7.965909,6.2327586 7.6022717,5.1982797 7.2803023,4.1206946 7,3 L 8.0227272,3 C 8.1136353,3.3793161 8.2159075,3.7801777 8.3295454,4.2025862 8.4507557,4.6250044 8.5757556,5.0474178 8.7045453,5.4698276 8.833331,5.8922445 8.9621188,6.3017268 9.0909089,6.6982759 9.22727,7.0862088 9.3598456,7.4353464 9.4886366,7.7456897 9.6174206,7.4353464 9.7499964,7.0862088 9.8863638,6.6982759 10.030299,6.3017268 10.170451,5.8922445 10.306818,5.4698276 10.443178,5.0474178 10.571965,4.6250044 10.693182,4.2025862 10.821965,3.7801777 10.931814,3.3793161 11.022727,3 L 12,3" style="fill:#fff"/></g><g id="text4969" transform="matrix(1.1978742,0,0,0.80482163,-1.0750059,-1.264892)" style="font-style:normal;font-variant:normal;font-weight:400;font-stretch:normal;font-size:4.31427526px;line-height:125%;font-family:'Ubuntu Mono';-inkscape-font-specification:'Ubuntu Mono';letter-spacing:0;word-spacing:0;fill:#fff;fill-opacity:1;stroke:none"><path id="path5002" d="m 8.4248873,12.733185 0.8348122,0 0,0.41417 -0.4943347,0 0,2.899193 0.4943347,0 0,0.414171 -0.8348122,0 0,-3.727534" style="font-weight:700;-inkscape-font-specification:'Ubuntu Mono Bold';fill:#fff"/><path id="path5004" d="m 10.929324,16.460719 -0.834812,0 0,-0.414171 0.50645,0 0,-2.899193 -0.50645,0 0,-0.41417 0.834812,0 0,3.727534" style="font-weight:700;-inkscape-font-specification:'Ubuntu Mono Bold';fill:#fff"/></g></svg>