<svg xmlns="http://www.w3.org/2000/svg" xmlns:svg="http://www.w3.org/2000/svg" id="svg2" width="14" height="14" version="1.1" viewBox="0 0 14 14"><metadata id="metadata13"/><g id="icomoon-ignore" transform="matrix(0.87711864,0,0,0.87711864,0,-0.06144068)"><line id="line5" x1="0" x2="0" y1="0" y2="0" style="stroke:#449fdb;stroke-width:1"/></g><path id="path7" d="M 2.6313559,-0.06144068 C 1.3446229,-0.06144068 0,1.2831822 0,2.5699153 l 0,8.7711867 c 0,1.28761 1.3446229,2.631356 2.6313559,2.631356 l 8.7711861,0 c 1.286733,0 2.631356,-1.343746 2.631356,-2.631356 l 0,-8.7711867 c 0,-1.2867331 -1.344623,-2.63135598 -2.631356,-2.63135598 z m 0.8771187,1.75423728 7.0169494,0 c 0.94324,0 1.754237,0.8109966 1.754237,1.7542373 l 0,7.0169491 c 0,0.943883 -0.810997,1.754237 -1.754237,1.754237 l -7.0169494,0 c -0.9432408,0 -1.7542373,-0.810354 -1.7542373,-1.754237 l 0,-7.0169491 c 0,-0.9432408 0.8109966,-1.7542373 1.7542373,-1.7542373 z" style="fill:#03a9f4;fill-opacity:1"/><g id="text2986" transform="matrix(0.70191555,0,0,1.0107699,0.53334882,-0.06144072)" style="font-style:normal;font-variant:normal;font-weight:400;font-stretch:normal;font-size:10.41327286px;line-height:125%;font-family:Monospace;-inkscape-font-specification:Monospace;letter-spacing:0;word-spacing:0;fill:#03a9f4;fill-opacity:1;stroke:none"><path id="path3029" d="m 6.93125,5 -4.3375,1.84375 0,1.40625 0,0.75 4.3375,2 0,-0.6875 0,-1.3125 -2.16875,-1 2.16875,-1 0,-0.6875 z M 9.1,5 l 0,0.6875 0,0.625 L 9.1,7 11.26875,8 9.1,9 l 0,0.65625 0,0.65625 0,0.6875 4.3375,-2 0,-0.75 0,-0.71875 0,-0.6875 z" transform="scale(1.1523754,0.86777278)" style="font-weight:700;font-family:'DejaVu Sans Mono';-inkscape-font-specification:'DejaVu Sans Mono Bold';letter-spacing:.86777276px;fill:#03a9f4;fill-opacity:1"/></g></svg>