<svg xmlns="http://www.w3.org/2000/svg" xmlns:svg="http://www.w3.org/2000/svg" id="svg2" width="14" height="14" version="1.1" viewBox="0 0 14 14"><metadata id="metadata13"/><g id="icomoon-ignore" transform="matrix(0.87263259,0,0,0.87263259,0,-0.0636837)"><line id="line5" x1="0" x2="0" y1="0" y2="0" style="stroke:#449fdb;stroke-width:1"/></g><path id="path7" d="M 7.0083305,-0.0636837 0.08180931,6.917377 7.0083305,13.898438 13.934852,6.917377 7.0083305,-0.0636837 Z M 6.9810607,1.7906606 12.080507,6.917377 6.9810607,12.044094 1.881614,6.917377 6.9810607,1.7906606 Z" style="fill:#673ab7;fill-opacity:1"/><path id="path2987" d="m 4.363163,5.1721118 0,0.1908884 0,0.9544419 0,0.1908884 5.2357955,0 0,-0.1908884 0,-0.9544419 0,-0.1908884 z m 0,2.1543118 0,0.1908883 0,0.9544419 0,0.1908884 5.2357955,0 0,-0.1908884 0,-0.9544419 0,-0.1908883 z" style="font-style:normal;font-variant:normal;font-weight:700;font-stretch:normal;font-size:12px;line-height:125%;font-family:Monospace;-inkscape-font-specification:'Monospace Bold';letter-spacing:0;word-spacing:0;fill:#673ab7;fill-opacity:1;stroke:none"/></svg>