<svg xmlns="http://www.w3.org/2000/svg" xmlns:svg="http://www.w3.org/2000/svg" id="svg4" width="14" height="14" version="1.1" viewBox="0 0 14 14"><metadata id="metadata10"/><path id="path2" d="M 7,1 V 2 H 6 V 3 H 7 V 4 H 8 V 3 H 9 V 2 H 8 V 1 Z m 4,0 v 1 h -1 v 1 h 1 v 1 h 1 V 3 h 1 V 2 H 12 V 1 Z M 2,6 C 1.446,6 1,6.446 1,7 v 5 c 0,0.554 0.446,1 1,1 h 5 c 0.554,0 1,-0.446 1,-1 V 11.334 L 7,11 c 0,0.554 -0.446,1 -1,1 H 3 C 2.446,12 2,11.554 2,11 V 8 C 2,7.446 2.446,7 3,7 H 6 C 6.554,7 7,7.446 7,8 L 8,7.666 V 7 C 8,6.446 7.554,6 7,6 Z" style="fill:#1d70f7"/></svg>