<svg xmlns="http://www.w3.org/2000/svg" xmlns:svg="http://www.w3.org/2000/svg" id="svg4" width="14" height="14" version="1.1" viewBox="0 0 14 14"><metadata id="metadata10"/><path id="path2" d="M 3.970213,0.92820515 A 3,3 0 0 0 0.97021297,3.928205 a 3,3 0 0 0 3.00000003,3 3,3 0 0 0 3,-3 3,3 0 0 0 -3,-2.99999985 m 3,2.99999985 a 3,3 0 0 0 3,3 3,3 0 0 0 3,-3 3,3 0 0 0 -3,-2.99999985 3,3 0 0 0 -3,2.99999985 m -3,-2 a 2,2 0 0 1 2,2 2,2 0 0 1 -2,2 2,2 0 0 1 -1.371094,-0.5488 1.5,1.5 0 0 0 0.371094,0.049 1.5,1.5 0 0 0 1.5,-1.5 1.5,1.5 0 0 0 -1.5,-1.5 1.5,1.5 0 0 0 -0.375,0.049 2,2 0 0 1 1.375,-0.5488 m 6,-4e-4 a 2,2 0 0 1 2,2 2,2 0 0 1 -2,2 2,2 0 0 1 -1.371094,-0.5488 1.5,1.5 0 0 0 0.371094,0.049 1.5,1.5 0 0 0 1.5,-1.5 1.5,1.5 0 0 0 -1.5,-1.5 1.5,1.5 0 0 0 -0.375,0.049 2,2 0 0 1 1.375,-0.5488 m 1.08,6.152 c -0.935,0.531 -2.457,0.847 -4.08,0.848 -1.394,-10e-4 -2.725,-0.234 -3.67,-0.645 l -0.629,0.734 c 0.384,0.198 0.83,0.354 1.299,0.49 v 1.42 a 2,2 0 0 0 2,2 2,2 0 0 0 1.5,-0.6797 2,2 0 0 0 1.5,0.6797 2,2 0 0 0 2,-2 v -1.773 c 0.272,-0.122 0.528,-0.253 0.754,-0.4 z m -1.08,1.4254 v 1.424 a 1,1 0 0 1 -1,1 1,1 0 0 1 -1,-1 v -1.059 c 0.712,-0.061 1.382,-0.185 2,-0.365 m -5,0.238 c 0.638,0.114 1.309,0.185 2,0.186 v 1 a 1,1 0 0 1 -1,1 1,1 0 0 1 -1,-1 z" style="color:#4d4d4d;color-interpolation:sRGB;color-interpolation-filters:linearRGB;fill:#6c7a89;color-rendering:auto;image-rendering:auto;shape-rendering:auto;text-rendering:auto"/></svg>