<svg xmlns="http://www.w3.org/2000/svg" xmlns:svg="http://www.w3.org/2000/svg" id="svg2" width="16" height="16" preserveAspectRatio="xMidYMid" version="1.1"><metadata id="metadata10"/><path id="path4" d="m 6.2626417,11.725212 c 0,-0.1 0.1,-0.1 0.1,-0.1 0.4,0 0,0.2 -0.1,0.4 1,0.2 2.1,0.1 3.1,-0.1 0.3,0.2 0.7000003,0.4 1.1000003,0.5 -1.1000003,0.5 -2.4000003,0.7 -3.6000003,0.5 -0.4,-0.1 -1,-0.1 -1.3,-0.6 -0.2,-0.4 0.4,-0.6 0.7,-0.6 z m -0.4,-1.5 0,0 c 0.2,0 0.6,-0.2 0.3,0.1 0,0.1 -0.4,0.2 -0.2,0.3 1.3,0.3 2.6,0.2 3.9,-0.1 0.2000003,0.3 0.5000003,0.4 0.9000003,0.5 -1.5000003,0.4 -3.0000003,0.6 -4.5000003,0.4 -0.4,-0.1 -0.9,-0.1 -1.1,-0.5 -0.1,-0.4 0.4,-0.6 0.7,-0.7 z m 5.1000003,-6.1999998 0,0 c 0.1,0.1 0.5,0 0.2,0.1 -0.7,0.6 -1.7000003,1 -2.2000003,1.9 -0.2,0.6 0.4,1 0.6,1.6 0.3,0.7 -0.3,1.3 -0.9,1.7 -0.2,0.1 -0.7,0.2 -0.3,-0.2 0.4,-0.3 0.5,-0.8 0.2,-1.2 -0.6,-0.6 -0.9,-1.4 -0.4,-2.1 0.6,-1 1.7,-1.4 2.8000003,-1.8 z m -6.1000003,8.5999998 0,0 c 0.3,0 0.6,0.2 0.8,0.4 -0.5,-0.1 -1.1,0 -1.6,0.3 0.2,0.1 0.5,0.1 0.7,0.2 2,0.3 4.1,0.2 6.0000003,0 0.5,-0.1 1,-0.1 1.2,-0.5 0.1,-0.1 -0.3,-0.3 -0.2,-0.3 0.3,0 0.8,0.2 0.6,0.6 -0.4,0.5 -1.2,0.6 -1.8,0.7 -2.3000003,0.4 -4.8000003,0.4 -7.1000003,-0.1 -0.3,0 -0.6,-0.3 -0.4,-0.6 0.5,-0.5 1.2,-0.6 1.8,-0.7 z m 1.5,-3.8999998 0,0 c 0.2,-0.1 0.3,0 0.5,0.1 -0.4,0.2 -0.9,0.2 -1.3,0.4 -0.1,0.1 -0.4,0.2 -0.2,0.2 1.2,0.2 2.4,0.1 3.6,0 0.7,0 1.4000003,-0.3 2.2000003,-0.2 -0.2,0.2 -0.4,0.3 -0.7,0.4 -0.5000003,0.3 -1.2000003,0.3 -1.9000003,0.3999998 -1.3,0.1 -2.8,0.2 -4.1,-0.1999998 -0.3,0 -0.5,-0.3 -0.3,-0.5 0.6,-0.4 1.4,-0.6 2.2,-0.6 z m 5.4000003,-0.2 c 0.7,0 1.4,0.6 1.2,1.4 -0.3,0.8999998 -1.3,1.2999998 -2.1,1.4999998 -0.5,0.2 -0.6,0.1 -0.2,-0.2 0.6,-0.4 1.2,-0.7 1.5,-1.2999998 0.2,-0.6 -0.4,-1.1 -0.9,-0.9 -0.2,0 -0.6,0.3 -0.5,0.1 0.2,-0.4 0.6,-0.6 1,-0.6 z m -2.6000003,-7 0,0 c 0,-0.2 0,-0.3 -0.1,-0.5 0.2,0.2 0.5,0.4 0.6,0.7 0.4000003,0.9 -0.1,1.9 -0.7,2.6 -0.6,0.7 -1.7,1.1 -1.9,2.2 -0.1,1 1,1.6 1.2,2.6 -0.4,-0.3 -0.8,-0.7 -1.1,-1 -0.6,-0.6 -1.2,-1.4 -0.9,-2.2 0.4,-1 1.4,-1.5 2.2,-2.2 0.6,-0.5 1,-1.4 0.7,-2.2 z m 3.6000003,11.9999998 0,0 c 0.1,-0.1 0.3,-0.6 0.2,-0.2 0.2,0.6 -0.4,1 -0.9,1.1 -1.7,0.6 -3.5000003,0.6 -5.3000003,0.5 -0.8,-0.1 -1.7,-0.1 -2.3,-0.7 2.2,0.3 4.4,0.4 6.5000003,0 0.6,-0.2 1.4,-0.3 1.8,-0.7 z" style="fill:#d32f2f;fill-opacity:1"/></svg>