<svg xmlns="http://www.w3.org/2000/svg" xmlns:svg="http://www.w3.org/2000/svg" id="svg2" width="2048" height="2048" preserveAspectRatio="none" version="1.1" viewBox="-128 -128 2048 2048"><metadata id="metadata10"/><path id="path4" d="m 0,1280 0,-768 1280,0 0,768 -1280,0 z M 1920,576 q 53,0 90.5,37.5 37.5,37.5 37.5,90.5 l 0,384 q 0,53 -37.5,90.5 -37.5,37.5 -90.5,37.5 l 0,160 q 0,66 -47,113 -47,47 -113,47 l -1856,0 q -66,0 -113,-47 -47,-47 -47,-113 l 0,-960 q 0,-66 47,-113 47,-47 113,-47 l 1856,0 q 66,0 113,47 47,47 47,113 l 0,160 z m 0,512 0,-384 -128,0 0,-288 q 0,-14 -9,-23 -9,-9 -23,-9 l -1856,0 q -14,0 -23,9 -9,9 -9,23 l 0,960 q 0,14 9,23 9,9 23,9 l 1856,0 q 14,0 23,-9 9,-9 9,-23 l 0,-288 128,0 z"/></svg>