<svg xmlns="http://www.w3.org/2000/svg" xmlns:svg="http://www.w3.org/2000/svg" id="svg2" width="16" height="16" version="1.1" viewBox="0 0 16 16"><metadata id="metadata10"/><path id="path4" d="M15.0 6.0L15.0 12.0909086764Q15.0 12.8749994813 14.4447123016 13.4374997406Q13.8894235917 14.0 13.1153842322 14.0L2.88461556552 14.0Q2.11057691408 14.0 1.55528840647 13.4374997406Q1.0 12.8749994813 1.0 12.0909086764L1.0 3.90909081129Q1.0 3.12500041626 1.55528840647 2.56249995197Q2.11057691408 2.0 2.88461556552 2.0L5.57692308276 2.0Q6.3509617342 2.0 6.90624993836 2.56249995197Q7.0 3.12500041626 7.0 3.90909081129L7.0 4.0L13.1153842322 4.0Q13.8894235917 4.18181858236 14.4447123016 4.74431853433Q15.0 5.21590888773 15.0 6.0Z" transform="matrix(1.000000,0.000000,0.000000,1.000000,0.000000,0.000000)"/></svg>